<svg xmlns="http://www.w3.org/2000/svg" viewBox="0 0 32 32" fill="none">
  <defs>
    <linearGradient id="bg" x1="4" y1="2" x2="28" y2="30" gradientUnits="userSpaceOnUse">
      <stop stop-color="#121212" />
      <stop offset="1" stop-color="#080808" />
    </linearGradient>
    <linearGradient id="orange" x1="14" y1="8" x2="26" y2="15" gradientUnits="userSpaceOnUse">
      <stop stop-color="#ff8a2a" />
      <stop offset="1" stop-color="#f36c00" />
    </linearGradient>
    <radialGradient id="glow" cx="0" cy="0" r="1" gradientUnits="userSpaceOnUse"
      gradientTransform="translate(20 11.5) rotate(90) scale(10)">
      <stop stop-color="#f36c00" stop-opacity="0.45" />
      <stop offset="1" stop-color="#f36c00" stop-opacity="0" />
    </radialGradient>
  </defs>

  <rect width="32" height="32" rx="8" fill="url(#bg)" />
  <rect width="32" height="32" rx="8" stroke="rgba(243,108,0,0.28)" stroke-width="0.75" />

  <circle cx="20" cy="11.5" r="9" fill="url(#glow)" />

  <rect x="6" y="8" width="5.5" height="16" rx="1.75" fill="rgba(255,255,255,0.07)" stroke="rgba(255,255,255,0.1)"
    stroke-width="0.5" />
  <rect x="6" y="10" width="5.5" height="2.2" rx="1.1" fill="rgba(243,108,0,0.35)" />
  <rect x="6" y="14" width="5.5" height="2.2" rx="1.1" fill="rgba(255,255,255,0.12)" />
  <rect x="6" y="18" width="5.5" height="2.2" rx="1.1" fill="rgba(255,255,255,0.12)" />

  <rect x="13.5" y="8" width="12.5" height="7" rx="1.75" fill="url(#orange)" />
  <rect x="13.5" y="17" width="12.5" height="7" rx="1.75" fill="rgba(255,255,255,0.08)" stroke="rgba(255,255,255,0.1)"
    stroke-width="0.5" />
  <rect x="15.5" y="19.2" width="8.5" height="1.2" rx="0.6" fill="rgba(255,255,255,0.22)" />
  <rect x="15.5" y="21.4" width="5.5" height="1.2" rx="0.6" fill="rgba(255,255,255,0.14)" />
</svg>